# xmcd
#
# Track frame offsets:
#	150
#	18797
#	35547
#	54875
#	76297
#	92547
#	112435
#
# Disc length: 1835 seconds
#
# Revision: 1
# Processed by: cddbd v1.5.1PL0 Copyright (c) Steve Scherf et al.
# Submitted via: CDex 1.50Beta5
#
DISCID=4b072907
DTITLE=田原俊彦 - PRESENTS Disc2
DYEAR=1900
DGENRE=Pop
TTITLE0=センチメンタル・ハイウェイ
TTITLE1=どうする?
TTITLE2=抱きしめてTONIGHT
TTITLE3=愛しすぎて
TTITLE4=ジャングルJungle
TTITLE5=THANX
TTITLE6=雨が叫んでる-TELL BY YOUR EYES-
EXTD=
EXTT0=
EXTT1=
EXTT2=
EXTT3=
EXTT4=
EXTT5=
EXTT6=
PLAYORDER=
